<svg width="1175" height="1174" viewBox="0 0 1175 1174" fill="none" xmlns="http://www.w3.org/2000/svg">
<g clip-path="url(#clip0_129_3125)">
<rect x="505.423" width="164.154" height="388.787" fill="#FF3F3F"/>
<path d="M505.423 1175H669.577V786.213H505.423V1175Z" fill="#FF3F3F"/>
<path d="M388.788 505.423L388.788 669.577L0.000847317 669.577L0.000854492 505.423L388.788 505.423Z" fill="#FF3F3F"/>
<path d="M114.434 229.948L230.509 113.873L505.422 388.787L389.348 504.861L114.434 229.948Z" fill="#FF3F3F"/>
<path d="M1060.57 229.948L944.491 113.873L669.578 388.787L785.652 504.861L1060.57 229.948Z" fill="#FF3F3F"/>
<path d="M1175 505.423L1175 669.577L786.213 669.577L786.213 505.423L1175 505.423Z" fill="#FF3F3F"/>
<path d="M114.434 944.49L230.509 1060.56L505.422 785.651L389.348 669.577L114.434 944.49Z" fill="#FF3F3F"/>
<path d="M1060.57 944.49L944.491 1060.56L669.578 785.651L785.652 669.577L1060.57 944.49Z" fill="#FF3F3F"/>
</g>
<defs>
<clipPath id="clip0_129_3125">
<rect width="1175" height="1174" fill="white"/>
</clipPath>
</defs>
</svg>
