<svg width="118" height="118" viewBox="0 0 118 118" fill="none" xmlns="http://www.w3.org/2000/svg">
<g clip-path="url(#clip0_104_41)">
<path d="M65.0578 0H52.9521V44.3875H65.0578V0Z" fill="#FF3F3F"/>
<path d="M44.3875 52.9521H0V65.0578H44.3875V52.9521Z" fill="#FF3F3F"/>
<path d="M118 52.9521H73.6125V65.0578H118V52.9521Z" fill="#FF3F3F"/>
<path d="M21.5653 13.0023L13.0054 21.5623L44.3917 52.9486L52.9517 44.3887L21.5653 13.0023Z" fill="#FF3F3F"/>
<path d="M96.4452 13.0013L65.0588 44.3877L73.6188 52.9476L105.005 21.5612L96.4452 13.0013Z" fill="#FF3F3F"/>
<path d="M65.0578 73.6125H52.9521V118H65.0578V73.6125Z" fill="#FF3F3F"/>
<path d="M73.6197 65.0546L65.0598 73.6145L96.4462 105.001L105.006 96.441L73.6197 65.0546Z" fill="#FF3F3F"/>
<path d="M44.3927 65.0558L13.0063 96.4421L21.5663 105.002L52.9526 73.6157L44.3927 65.0558Z" fill="#FF3F3F"/>
</g>
<defs>
<clipPath id="clip0_104_41">
<rect width="118" height="118" fill="white"/>
</clipPath>
</defs>
</svg>
