<svg width="36" height="104" viewBox="0 0 36 104" fill="none" xmlns="http://www.w3.org/2000/svg">
<path fill-rule="evenodd" clip-rule="evenodd" d="M17.7621 69.2111C17.8498 69.2125 17.9377 69.2132 18.0257 69.2132C18.055 69.2132 18.0843 69.2131 18.1136 69.213L18.1136 35.9966C18.0843 35.9964 18.055 35.9963 18.0257 35.9963C17.9377 35.9963 17.8498 35.997 17.7621 35.9984L17.7621 69.2111ZM15.4774 69.0189L15.4774 36.1906C15.3598 36.2087 15.2426 36.2281 15.1259 36.2486L15.1259 68.9609C15.2426 68.9815 15.3598 69.0008 15.4774 69.0189ZM12.8411 68.388L12.8411 36.8216C12.7234 36.8602 12.6062 36.9002 12.4896 36.9414L12.4896 68.2682C12.6062 68.3094 12.7234 68.3493 12.8411 68.388ZM10.2049 67.2603L10.2049 37.9493C10.0869 38.0124 9.96973 38.0769 9.85343 38.1427L9.85342 67.0668C9.96973 67.1327 10.0869 67.1971 10.2049 67.2603ZM7.56871 65.5086L7.56871 39.7009C7.45018 39.7971 7.333 39.8949 7.21721 39.9942L7.21721 65.2153C7.333 65.3147 7.45018 65.4124 7.56871 65.5086ZM4.93249 62.824L4.93249 42.3856C4.81267 42.5389 4.69548 42.6943 4.58099 42.8519L4.58099 62.3576C4.69548 62.5152 4.81267 62.6707 4.93249 62.824ZM2.29628 57.9503L2.29628 47.2592C2.16509 47.6454 2.04773 48.0379 1.94477 48.4362L1.94477 56.7733C2.04773 57.1716 2.16509 57.5642 2.29628 57.9503ZM20.3986 36.1646L20.3986 69.045C20.5162 69.0281 20.6334 69.0101 20.7501 68.9908L20.7501 36.2187C20.6334 36.1994 20.5162 36.1814 20.3986 36.1646ZM23.0348 36.7651L23.0348 68.4445C23.1526 68.4073 23.2698 68.3688 23.3863 68.3291L23.3863 36.8805C23.2698 36.8407 23.1526 36.8023 23.0348 36.7651ZM25.6711 37.8568L25.6711 67.3527C25.7891 67.2914 25.9062 67.2288 26.0226 67.1647L26.0226 38.0448C25.9062 37.9808 25.7891 37.9181 25.6711 37.8568ZM28.3073 39.5605L28.3073 65.649C28.4258 65.5555 28.5429 65.4604 28.6588 65.3637L28.6588 39.8458C28.5429 39.7491 28.4258 39.654 28.3073 39.5605ZM30.9435 42.165L30.9435 63.0446C31.0632 62.8967 31.1804 62.7467 31.295 62.5946L31.295 42.6149C31.1804 42.4629 31.0632 42.3129 30.9435 42.165ZM33.5797 46.7683L33.5797 58.4412C33.7079 58.0997 33.8252 57.7527 33.9312 57.4009L33.9312 47.8087C33.8252 47.4568 33.7079 47.1099 33.5797 46.7683Z" fill="#E5E5E5"/>
<circle cx="17.9999" cy="85.8211" r="16.3448" transform="rotate(90 17.9999 85.8211)" fill="#E5E5E5"/>
<path fill-rule="evenodd" clip-rule="evenodd" d="M7.00146 85.0764L7.00146 86.6539L13.9862 86.6539L7.51006 89.2705L8.10101 90.7331L14.7449 88.0488L9.67801 93.1157L10.7935 94.2312L15.6499 89.3748L12.9002 95.6683L14.3457 96.2999L17.2552 89.6406L17.2552 96.9077L18.8328 96.9077L18.8328 89.6406L21.7422 96.2999L23.1878 95.6683L20.4381 89.3748L25.2945 94.2312L26.4099 93.1157L21.3431 88.0488L27.987 90.7331L28.5779 89.2705L22.1018 86.6539L29.0865 86.6539L29.0865 85.0764L22.1018 85.0764L28.5779 82.4599L27.987 80.9973L21.3431 83.6815L26.4099 78.6147L25.2945 77.4993L20.4381 82.3557L23.1878 76.0621L21.7422 75.4306L18.8328 82.0898L18.8328 74.8227L17.2552 74.8227L17.2552 82.0899L14.3457 75.4306L12.9002 76.0621L15.6499 82.3557L10.7935 77.4993L9.67801 78.6147L14.7449 83.6815L8.10101 80.9973L7.51006 82.4599L13.9862 85.0764L7.00146 85.0764Z" fill="#0F0F0F"/>
<circle cx="17.9999" cy="19.8275" r="16.1345" transform="rotate(90 17.9999 19.8275)" stroke="#E5E5E5" stroke-width="0.420667"/>
<path fill-rule="evenodd" clip-rule="evenodd" d="M7.00146 18.9951L7.00146 20.5727L13.9862 20.5727L7.51006 23.1892L8.10101 24.6518L14.7449 21.9675L9.67801 27.0344L10.7935 28.1499L15.6499 23.2935L12.9002 29.587L14.3457 30.2186L17.2552 23.5593L17.2552 30.8264L18.8328 30.8264L18.8328 23.5593L21.7422 30.2186L23.1878 29.587L20.4381 23.2935L25.2945 28.1499L26.4099 27.0344L21.3431 21.9675L27.987 24.6518L28.5779 23.1892L22.1018 20.5727L29.0865 20.5727L29.0865 18.9951L22.1018 18.9951L28.5779 16.3786L27.987 14.916L21.3431 17.6002L26.4099 12.5334L25.2945 11.418L20.4381 16.2744L23.1878 9.98079L21.7422 9.34927L18.8328 16.0085L18.8328 8.74137L17.2552 8.74137L17.2552 16.0086L14.3457 9.34927L12.9002 9.98079L15.6499 16.2744L10.7935 11.418L9.67801 12.5334L14.7449 17.6002L8.10101 14.916L7.51006 16.3786L13.9862 18.9951L7.00146 18.9951Z" fill="#E5E5E5"/>
</svg>
