<svg width="250" height="87" viewBox="0 0 250 87" fill="none" xmlns="http://www.w3.org/2000/svg">
<path fill-rule="evenodd" clip-rule="evenodd" d="M164.845 44.0753C164.848 43.8633 164.85 43.6509 164.85 43.438C164.85 43.3673 164.849 43.2965 164.849 43.2259H84.576C84.5756 43.2965 84.5754 43.3673 84.5754 43.438C84.5754 43.6509 84.5771 43.8633 84.5804 44.0753H164.845ZM164.38 49.5966H85.045C85.0887 49.8808 85.1355 50.1639 85.1852 50.4461H164.24C164.29 50.1639 164.336 49.8808 164.38 49.5966ZM162.855 55.9676H86.5698C86.6632 56.2522 86.7597 56.5354 86.8593 56.8171H162.566C162.665 56.5354 162.762 56.2522 162.855 55.9676ZM160.13 62.3386H89.2952C89.4477 62.6239 89.6036 62.907 89.7628 63.1881H159.662C159.821 62.907 159.977 62.6239 160.13 62.3386ZM155.896 68.7097H93.5286C93.761 68.9961 93.9973 69.2793 94.2374 69.5591H155.188C155.428 69.2793 155.664 68.9961 155.896 68.7097ZM149.408 75.0807H100.017C100.387 75.3702 100.763 75.6535 101.144 75.9301H148.281C148.662 75.6535 149.038 75.3702 149.408 75.0807ZM137.629 81.4514H111.796C112.729 81.7685 113.678 82.0521 114.641 82.3009H134.784C135.747 82.0521 136.696 81.7685 137.629 81.4514ZM84.9819 37.7043H164.443C164.402 37.4202 164.359 37.137 164.312 36.8548H85.1127C85.0661 37.137 85.0225 37.4202 84.9819 37.7043ZM86.433 31.3333H162.992C162.902 31.0488 162.809 30.7656 162.713 30.4838H86.7119C86.6158 30.7656 86.5229 31.0488 86.433 31.3333ZM89.0713 24.9623H160.354C160.206 24.6771 160.054 24.3939 159.899 24.1128H89.5256C89.3709 24.3939 89.2194 24.6771 89.0713 24.9623ZM93.1886 18.5913H156.236C156.01 18.3049 155.781 18.0218 155.547 17.7418H93.878C93.6444 18.0218 93.4146 18.3049 93.1886 18.5913ZM99.4824 12.2205H149.943C149.585 11.9313 149.223 11.6481 148.855 11.371H100.57C100.202 11.6481 99.8398 11.9313 99.4824 12.2205ZM110.607 5.84946H138.818C137.992 5.53955 137.154 5.25605 136.303 5H113.122C112.271 5.25605 111.433 5.53955 110.607 5.84946Z" fill="#E5E5E5"/>
<circle cx="204.985" cy="43.5" r="39.5" fill="#E5E5E5"/>
<path fill-rule="evenodd" clip-rule="evenodd" d="M203.185 70.0798L206.997 70.0798L206.997 53.2L213.32 68.8507L216.855 67.4226L210.368 51.3665L222.613 63.6115L225.309 60.9158L213.572 49.1795L228.782 55.8246L230.308 52.3312L214.215 45.2999L231.777 45.2999L231.777 41.4875L214.215 41.4875L230.308 34.4563L228.782 30.9628L213.572 37.6079L225.309 25.8716L222.613 23.1761L210.368 35.421L216.855 19.3648L213.32 17.9368L206.997 33.5874L206.997 16.7076L203.185 16.7076L203.185 33.5874L196.861 17.9368L193.327 19.3648L199.814 35.421L187.569 23.1761L184.873 25.8716L196.609 37.6079L181.4 30.9628L179.874 34.4563L195.967 41.4875L178.405 41.4875L178.405 45.2999L195.967 45.2999L179.874 52.3312L181.4 55.8246L196.609 49.1795L184.873 60.9158L187.569 63.6115L199.814 51.3665L193.327 67.4226L196.861 68.8507L203.185 53.2L203.185 70.0798Z" fill="#0F0F0F"/>
<circle cx="45.5" cy="43.5" r="38.9916" stroke="#E5E5E5" stroke-width="1.01661"/>
<path fill-rule="evenodd" clip-rule="evenodd" d="M43.4877 70.0798L47.3 70.0798L47.3 53.2L53.6233 68.8507L57.158 67.4226L50.6709 51.3665L62.9159 63.6115L65.6116 60.9158L53.8753 49.1795L69.0847 55.8246L70.611 52.3312L54.5177 45.2999L72.08 45.2999L72.08 41.4875L54.5177 41.4875L70.611 34.4563L69.0847 30.9628L53.8753 37.6079L65.6116 25.8716L62.9159 23.1761L50.6709 35.421L57.158 19.3648L53.6233 17.9368L47.3 33.5874L47.3 16.7076L43.4877 16.7076L43.4877 33.5874L37.1644 17.9368L33.6298 19.3648L40.1167 35.421L27.8718 23.1761L25.1762 25.8716L36.9125 37.6079L21.703 30.9628L20.1768 34.4563L36.2699 41.4875L18.7077 41.4875L18.7077 45.2999L36.2701 45.2999L20.1768 52.3312L21.703 55.8246L36.9125 49.1795L25.1762 60.9158L27.8718 63.6115L40.1167 51.3665L33.6298 67.4226L37.1644 68.8507L43.4877 53.2L43.4877 70.0798Z" fill="#E5E5E5"/>
</svg>
