<?xml version="1.0" standalone="no"?>
<!DOCTYPE svg PUBLIC "-//W3C//DTD SVG 20010904//EN"
 "http://www.w3.org/TR/2001/REC-SVG-20010904/DTD/svg10.dtd">
<svg version="1.0" xmlns="http://www.w3.org/2000/svg"
 width="1376.000000pt" height="1376.000000pt" viewBox="0 0 1376.000000 1376.000000"
 preserveAspectRatio="xMidYMid meet">
<metadata>
Created by potrace 1.14, written by Peter Selinger 2001-2017
</metadata>
<g transform="translate(0.000000,1376.000000) scale(0.100000,-0.100000)"
fill="#000000" stroke="none">
<path d="M0 6906 l0 -3975 1000 0 1000 1 1 36 c2 92 0 153 -6 162 -3 5 -3 10
2 10 9 0 8 442 -1 465 -3 8 -2 15 2 15 4 0 6 60 4 133 -1 72 -2 141 -2 152 0
11 0 91 1 177 0 87 -2 162 -6 168 -3 5 -3 10 2 10 4 0 7 60 5 133 -1 72 -2
141 -2 152 0 11 0 91 1 177 0 87 -2 162 -6 168 -3 5 -3 10 2 10 4 0 7 60 5
133 -1 72 -2 141 -2 152 0 11 0 106 1 211 l1 192 1001 1 c551 0 1038 3 1082 6
154 9 229 18 350 39 142 25 148 26 190 38 22 5 47 12 55 14 63 15 107 27 120
32 21 7 21 8 55 17 17 4 35 10 40 14 6 3 12 6 15 6 28 5 90 30 90 37 0 5 4 7
8 4 4 -2 41 11 81 30 40 19 74 34 77 34 12 0 217 119 295 173 50 34 103 69
116 78 13 9 32 25 42 35 10 11 38 35 62 54 57 46 235 223 279 279 19 24 43 51
52 60 10 8 30 35 45 58 15 24 31 43 35 43 4 0 8 4 8 9 0 4 22 41 49 82 81 122
244 449 224 449 -3 0 -1 6 5 13 17 20 92 276 108 367 2 14 10 50 16 80 6 30
12 69 13 85 2 17 5 42 8 58 21 107 29 523 13 687 -4 47 -9 103 -11 125 -3 22
-6 50 -9 62 -2 11 -8 43 -12 70 -3 26 -8 57 -11 68 -2 11 -6 29 -8 40 -21 106
-94 355 -125 420 -5 11 -23 52 -39 92 -40 92 -101 207 -164 308 -54 87 -127
188 -139 193 -5 2 -8 7 -8 11 0 4 -15 25 -32 47 -50 60 -357 364 -368 364 -5
0 -22 12 -37 26 -37 35 -293 204 -309 204 -7 0 -14 4 -16 8 -3 7 -192 102
-203 102 -2 0 -29 11 -59 25 -30 14 -57 25 -60 25 -2 0 -17 5 -33 12 -15 6
-32 12 -38 13 -5 2 -46 15 -90 30 -77 26 -93 30 -142 41 -12 2 -35 9 -50 15
-16 6 -29 10 -31 9 -4 -2 -77 11 -92 17 -8 3 -26 7 -40 9 -14 2 -35 6 -48 9
-12 3 -44 8 -70 10 -26 3 -58 8 -72 12 -14 3 -36 7 -50 8 -36 3 -147 16 -200
22 -25 4 -928 8 -2007 10 l-1963 4 0 -3975z m3624 2310 c43 -4 88 -10 100 -12
12 -3 32 -7 46 -10 14 -3 43 -10 65 -16 22 -6 47 -12 55 -13 8 -2 16 -4 18 -5
1 -2 5 -3 10 -5 12 -3 45 -17 92 -38 25 -11 48 -19 53 -19 4 1 7 -2 7 -8 0 -6
3 -9 8 -8 9 3 68 -35 106 -69 8 -7 16 -10 18 -8 2 3 47 -39 99 -93 147 -152
225 -312 256 -522 7 -50 7 -339 -1 -375 -3 -16 -8 -43 -10 -60 -2 -16 -6 -37
-9 -45 -4 -8 -8 -26 -11 -40 -6 -35 -27 -93 -39 -107 -5 -7 -7 -13 -3 -13 3 0
-8 -25 -24 -55 -16 -30 -28 -55 -25 -55 3 0 -2 -8 -10 -17 -7 -10 -34 -45 -59
-79 -47 -63 -156 -171 -203 -201 -16 -10 -30 -20 -33 -24 -7 -9 -164 -90 -181
-93 -8 -2 -21 -6 -29 -9 -30 -12 -166 -46 -210 -52 -25 -3 -58 -9 -75 -12 -16
-3 -389 -6 -828 -7 -705 -1 -798 0 -802 14 -4 15 -7 943 -4 1162 1 42 -2 81
-5 87 -4 6 -4 11 1 11 4 0 7 60 5 133 -3 150 -3 145 -1 249 1 42 -2 81 -5 87
-4 6 -4 11 1 11 4 0 7 72 6 159 -1 140 0 160 14 163 35 7 1532 1 1607 -6z"/>
<path d="M6809 10873 c0 -10 0 -7926 0 -7935 1 -9 4253 -4 4296 5 17 3 59 8
95 11 36 4 81 8 100 11 19 2 58 7 85 11 28 3 59 8 70 10 11 2 47 9 80 15 33 6
96 19 140 30 44 10 89 21 100 23 11 2 31 9 45 14 14 5 28 10 32 11 4 1 13 3
20 5 7 3 38 12 68 21 30 9 64 20 75 25 56 23 91 35 98 32 4 -1 7 2 7 8 0 5 7
10 15 10 33 0 399 194 441 234 6 6 22 18 34 26 84 55 193 148 288 243 106 108
122 125 122 133 0 3 8 14 18 23 38 35 182 247 182 268 0 6 3 13 8 15 18 8 162
342 162 377 0 5 5 22 12 38 6 15 12 33 13 38 2 6 12 54 24 108 23 107 26 123
46 287 23 179 18 486 -10 655 -11 67 -26 141 -39 193 -3 12 -8 30 -10 40 -10
39 -56 171 -81 232 -48 116 -166 329 -187 338 -4 2 -8 10 -8 18 0 8 -4 14 -8
14 -4 0 -16 13 -25 30 -10 16 -23 35 -30 42 -7 7 -29 36 -50 64 -36 47 -207
220 -253 254 -11 8 -40 32 -66 53 -25 20 -49 37 -53 37 -3 0 -13 6 -20 13 -33
29 -45 37 -45 32 0 -3 -15 5 -33 19 -19 15 -37 26 -40 26 -3 0 -28 13 -54 28
-83 48 -309 144 -368 156 -48 9 -37 39 23 61 275 104 558 302 727 509 22 27
46 55 53 62 6 7 12 16 12 19 0 4 10 21 23 38 46 65 119 214 150 307 23 69 39
126 36 132 0 2 4 15 10 30 6 15 13 49 17 75 3 27 8 51 10 55 25 41 24 507 -1
658 -2 14 -7 43 -11 65 -3 22 -8 43 -10 46 -2 3 -6 19 -8 35 -8 42 -14 65 -25
102 -5 18 -11 36 -12 40 -2 9 -5 18 -24 77 -23 70 -119 280 -135 295 -3 3 -14
21 -24 40 -76 140 -306 398 -440 495 -37 26 -98 72 -112 84 -6 5 -24 16 -40
25 -16 9 -47 28 -69 41 -60 38 -202 109 -275 139 -36 15 -74 31 -85 36 -11 5
-38 14 -60 21 -22 6 -46 16 -52 22 -7 5 -13 7 -13 4 0 -4 -19 0 -41 9 -23 8
-51 16 -63 19 -12 2 -46 11 -76 19 -30 8 -67 17 -82 21 -16 3 -40 8 -55 11
-16 4 -37 7 -48 9 -11 1 -36 5 -55 9 -19 4 -46 8 -60 10 -14 2 -45 6 -70 10
-25 3 -63 8 -85 10 -22 3 -40 5 -40 6 0 14 -4285 27 -4286 13z m3716 -1557
c201 -19 398 -94 519 -196 117 -99 175 -180 222 -312 14 -37 26 -83 28 -102 2
-18 5 -37 8 -42 13 -22 4 -241 -13 -320 -17 -77 -55 -183 -70 -194 -3 -3 -13
-18 -22 -35 -44 -85 -192 -213 -317 -273 -103 -50 -170 -69 -335 -98 -42 -7
-1749 -15 -1776 -8 -14 4 -15 84 -15 792 0 433 3 789 7 792 9 6 1698 3 1764
-4z m-1694 -2916 c11 7 20 7 24 0 4 -6 15 -6 30 0 14 5 25 6 25 2 0 -5 25 -5
55 -2 30 3 55 3 55 -1 0 -4 14 -4 30 1 17 5 30 5 30 2 0 -9 64 -7 79 2 5 4 12
2 16 -4 4 -7 12 -7 25 0 12 6 21 7 25 0 3 -5 15 -6 28 -1 12 5 34 5 49 0 16
-4 28 -4 28 1 0 6 10 6 25 0 15 -6 26 -6 30 1 4 5 11 7 16 3 15 -9 80 -11 85
-2 3 4 16 3 29 -2 16 -6 25 -6 25 0 0 6 9 6 23 2 25 -9 59 -8 75 2 6 3 13 2
17 -3 4 -7 15 -7 30 -1 17 6 25 6 25 -1 0 -6 5 -7 11 -4 14 9 134 9 148 1 6
-4 11 -4 11 1 0 9 88 8 97 -1 3 -3 13 -1 22 4 10 5 23 5 31 0 8 -5 21 -5 31 1
11 6 20 5 24 -1 4 -6 15 -6 30 0 17 6 25 6 25 -1 0 -6 5 -7 10 -4 14 9 118 10
126 2 4 -3 15 -2 25 3 11 7 20 7 24 0 4 -6 15 -6 30 0 16 6 25 6 25 0 0 -5 6
-7 13 -4 19 7 97 11 97 4 0 -3 33 -5 73 -6 71 0 147 -8 197 -20 14 -3 37 -7
51 -9 48 -8 142 -41 202 -72 15 -8 27 -11 27 -6 0 4 4 3 8 -2 4 -6 21 -17 37
-25 109 -55 255 -185 331 -295 26 -38 47 -71 46 -72 -1 -2 7 -23 18 -48 80
-186 97 -435 45 -653 -9 -37 -21 -78 -27 -92 -23 -55 -73 -147 -101 -190 -63
-92 -215 -226 -304 -267 -21 -10 -40 -21 -43 -24 -3 -3 -21 -11 -40 -18 -19
-7 -44 -17 -55 -22 -15 -6 -87 -27 -112 -32 -1 0 -40 -8 -85 -18 -76 -16 -167
-17 -1044 -18 l-960 -2 0 945 c0 520 3 943 6 941 3 -2 12 0 20 5 9 6 19 5 24
0 5 -5 16 -5 27 0z"/>
</g>
</svg>
